<?xml version="1.0" encoding="UTF-8" standalone="no"?>
<!DOCTYPE svg PUBLIC "-//W3C//DTD SVG 1.1//EN" "http://www.w3.org/Graphics/SVG/1.1/DTD/svg11.dtd">
<svg width="100%" height="100%" viewBox="0 0 416 394" version="1.1" xmlns="http://www.w3.org/2000/svg" xmlns:xlink="http://www.w3.org/1999/xlink" xml:space="preserve" xmlns:serif="http://www.serif.com/" style="fill-rule:evenodd;clip-rule:evenodd;stroke-linejoin:round;stroke-miterlimit:1.41421;">
    <g id="Artboard1" transform="matrix(0.416,0,0,0.394,0,0)">
        <rect x="0" y="0" width="1000" height="1000" style="fill:none;"/>
        <g transform="matrix(1,0,0,2.53807,33.4519,34.6916)">
            <g transform="matrix(2.40385,0,0,1,0,0)">
                <path d="M89.885,43.65C89.885,52.846 87.788,60.792 83.593,67.487C79.237,74.505 72.905,79.627 64.596,82.854C58.949,85.032 50.52,86.121 39.307,86.121C39.146,86.121 38.258,86.081 36.645,86C35.032,85.919 32.692,85.879 29.627,85.879L25.271,85.879C25.11,85.879 22.488,85.919 17.406,86L9.783,86.121C8.573,86.121 7.968,85.798 7.968,85.153C7.968,84.346 9.097,83.983 11.356,84.064C14.825,84.145 16.922,83.54 17.648,82.249C17.971,81.684 18.132,79.224 18.132,74.868L18.132,13.279C18.132,9.73 17.89,7.552 17.406,6.745C16.599,5.293 14.542,4.607 11.235,4.688C9.46,4.769 8.573,4.365 8.573,3.478C8.573,2.752 9.138,2.389 10.267,2.389L12.445,2.389C17.285,2.389 21.964,2.429 26.481,2.51C32.934,2.591 37.936,2.631 41.485,2.631C56.166,2.631 67.419,5.656 75.244,11.706C85.005,19.289 89.885,29.937 89.885,43.65ZM68.952,43.65C68.952,30.34 66.976,20.599 63.023,14.429C59.07,8.257 52.859,5.172 44.389,5.172C41.324,5.172 39.307,5.495 38.339,6.14C37.048,6.947 36.403,8.842 36.403,11.827L36.403,73.779C36.403,79.103 36.726,82.047 37.371,82.612C38.339,83.499 40.477,83.943 43.784,83.943C60.563,83.943 68.952,70.512 68.952,43.65Z" style="fill:rgb(255,0,0);fill-rule:nonzero;"/>
                <path d="M141.682,85.153C141.682,85.798 141.158,86.121 140.109,86.121C139.544,86.121 139.02,86.081 138.536,86C133.696,85.758 129.542,85.637 126.073,85.637C122.443,85.637 117.119,85.758 110.101,86C107.762,86.081 106.027,86.121 104.898,86.121C103.688,86.121 103.083,85.758 103.083,85.032C103.083,84.629 103.305,84.387 103.748,84.306C104.192,84.225 105.745,84.145 108.407,84.064C110.908,83.58 112.36,82.834 112.763,81.826C113.166,80.817 113.368,77.57 113.368,72.085L113.368,13.884C113.368,12.351 113.368,10.859 113.368,9.407C113.287,7.955 113.247,7.269 113.247,7.35C113.247,5.333 111.23,4.325 107.197,4.325C104.938,4.325 103.809,4.043 103.809,3.478C103.809,2.913 103.97,2.591 104.293,2.51C104.616,2.429 105.664,2.389 107.439,2.389C106.632,2.389 108.084,2.429 111.795,2.51C115.506,2.591 118.692,2.631 121.354,2.631L127.525,2.631C128.816,2.631 130.651,2.57 133.031,2.45C135.41,2.329 137.084,2.268 138.052,2.268L139.262,2.268C140.311,2.268 140.835,2.591 140.835,3.236C140.835,3.72 140.654,4.022 140.29,4.144C139.927,4.264 138.697,4.365 136.6,4.446C134.099,4.607 132.567,5.132 132.002,6.019L131.639,8.318L131.639,76.683C131.639,80.152 132.022,82.209 132.789,82.854C133.555,83.499 136.156,83.943 140.593,84.185C141.319,84.266 141.682,84.588 141.682,85.153Z" style="fill:rgb(255,0,0);fill-rule:nonzero;"/>
                <path d="M208.483,62.163C208.483,69.504 205.881,75.574 200.678,80.374C195.475,85.173 188.841,87.573 180.774,87.573C175.853,87.573 169.077,85.919 160.446,82.612C159.801,82.37 159.236,82.249 158.752,82.249C157.381,82.249 156.332,83.701 155.606,86.605C155.364,87.492 155.041,87.936 154.638,87.936C153.993,87.936 153.67,87.371 153.67,86.242C153.67,85.193 153.872,83.338 154.275,80.676C154.598,78.498 154.759,75.957 154.759,73.053C154.759,70.714 154.719,68.858 154.638,67.487C154.477,64.744 154.396,63.131 154.396,62.647C154.396,61.356 154.799,60.711 155.606,60.711C156.413,60.711 157.139,62.445 157.784,65.914C158.913,71.883 161.454,76.522 165.407,79.829C169.682,83.378 174.28,85.153 179.201,85.153C183.557,85.153 187.227,83.782 190.212,81.039C193.197,78.296 194.689,74.949 194.689,70.996C194.689,67.608 193.721,64.906 191.785,62.889C190.333,61.437 185.654,58.573 177.749,54.298C168.956,49.619 162.987,44.941 159.841,40.262C156.937,35.987 155.485,30.905 155.485,25.016C155.485,18.079 157.945,12.331 162.866,7.773C167.787,3.216 173.998,0.937 181.5,0.937C185.533,0.937 189.849,1.905 194.447,3.841C195.98,4.486 197.069,4.809 197.714,4.809C198.924,4.809 199.731,3.76 200.134,1.663C200.295,0.937 200.658,0.574 201.223,0.574C202.03,0.574 202.433,1.098 202.433,2.147C202.433,2.55 202.352,3.68 202.191,5.535C202.03,7.39 201.949,8.923 201.949,10.133C201.949,14.328 202.11,17.877 202.433,20.781C202.514,21.023 202.554,21.346 202.554,21.749C202.554,22.475 202.231,22.838 201.586,22.838C200.86,22.838 200.134,21.547 199.408,18.966C198.682,16.385 197.411,13.824 195.597,11.282C193.782,8.741 191.946,6.906 190.091,5.777C187.671,4.325 184.848,3.599 181.621,3.599C177.104,3.599 173.514,4.688 170.852,6.866C168.19,9.044 166.859,12.029 166.859,15.82C166.859,19.127 168.109,22.051 170.61,24.592C173.111,27.133 177.91,30.38 185.009,34.333C193.721,39.173 199.489,43.045 202.312,45.949C206.426,50.224 208.483,55.629 208.483,62.163Z" style="fill:rgb(255,0,0);fill-rule:nonzero;"/>
                <path d="M292.829,59.501L292.708,61.558C292.708,61.961 292.506,64.502 292.103,69.181C291.78,72.73 291.619,75.473 291.619,77.409C291.619,79.829 291.659,81.846 291.74,83.459C291.821,84.024 291.861,84.709 291.861,85.516C291.861,86.403 291.659,86.847 291.256,86.847C290.853,86.847 290.409,86.444 289.925,85.637C288.15,82.733 286.255,80.837 284.238,79.95C278.188,85.113 271.694,87.694 264.757,87.694C254.19,87.694 244.873,83.741 236.806,75.836C228.255,67.447 223.98,56.879 223.98,44.134C223.98,31.792 227.832,21.487 235.536,13.218C243.239,4.95 252.859,0.816 264.394,0.816C269.718,0.816 274.477,2.026 278.672,4.446C281.092,5.817 282.867,6.503 283.996,6.503C285.69,6.503 287.263,5.737 288.715,4.204C289.764,3.075 290.409,2.51 290.651,2.51C290.974,2.51 291.135,2.792 291.135,3.357C291.135,3.599 291.095,3.962 291.014,4.446C290.53,7.189 290.288,10.577 290.288,14.61C290.288,15.013 290.328,16.667 290.409,19.571L290.409,27.92C290.409,29.372 290.006,30.098 289.199,30.098C288.554,30.098 287.908,28.525 287.263,25.379C284.359,10.859 277.704,3.599 267.298,3.599C259.07,3.599 253.101,8.923 249.39,19.571C246.809,26.831 245.518,35.543 245.518,45.707C245.518,60.792 248.583,71.843 254.714,78.861C257.941,82.572 262.176,84.427 267.419,84.427C278.793,84.427 286.255,76.844 289.804,61.679C290.369,59.178 291.014,57.928 291.74,57.928C292.547,57.928 292.91,58.452 292.829,59.501Z" style="fill:rgb(255,0,0);fill-rule:nonzero;"/>
                <path d="M387.702,44.255C387.702,56.355 383.931,66.58 376.389,74.929C368.846,83.278 359.59,87.452 348.619,87.452C337.89,87.452 328.694,83.217 321.031,74.747C313.368,66.277 309.536,56.073 309.536,44.134C309.536,31.873 313.347,21.628 320.971,13.4C328.594,5.172 338.052,1.058 349.345,1.058C360.235,1.058 369.35,5.192 376.691,13.46C384.032,21.729 387.702,31.994 387.702,44.255ZM366.406,46.191C366.406,30.138 364.51,18.28 360.719,10.617C358.218,5.616 354.266,3.115 348.861,3.115C343.376,3.115 339,6.624 335.732,13.642C332.466,20.66 330.832,30.058 330.832,41.835C330.832,58.936 333.736,71.722 339.544,80.192C341.964,83.741 345.473,85.516 350.071,85.516C355.395,85.516 359.146,82.975 361.324,77.893C364.712,69.988 366.406,59.42 366.406,46.191Z" style="fill:rgb(255,0,0);fill-rule:nonzero;"/>
            </g>
            <g transform="matrix(2.40385,0,0,1,0,0)">
                <path d="M81.536,96.357C81.536,96.922 81.133,97.244 80.326,97.325C76.051,97.486 73.369,97.97 72.28,98.777C71.191,99.584 70.001,101.883 68.71,105.674C68.065,107.449 67.097,110.151 65.806,113.781C61.531,125.639 54.634,145.644 45.115,173.797C43.824,177.83 42.897,179.847 42.332,179.847C41.606,179.847 41.001,179.121 40.517,177.669C39.468,174.362 38.137,170.611 36.524,166.416C34.104,159.882 30.837,151.21 26.723,140.401C24.948,135.642 22.206,128.583 18.495,119.226C16.478,114.144 14.462,108.497 12.445,102.286C11.396,98.898 9.218,97.244 5.911,97.325L1.918,97.446C0.95,97.446 0.466,97.083 0.466,96.357C0.466,95.631 1.918,95.268 4.822,95.268L25.271,95.389C26.158,95.389 27.247,95.389 28.538,95.389C29.909,95.308 31.442,95.268 33.136,95.268L39.912,95.268C41.445,95.268 42.211,95.631 42.211,96.357C42.211,97.002 40.799,97.365 37.976,97.446C33.378,97.527 31.079,98.253 31.079,99.624C31.079,99.785 31.765,101.923 33.136,106.037C39.267,124.429 44.671,139.473 49.35,151.17C50.399,148.589 52.335,143.224 55.158,135.077C55.884,132.899 57.578,127.978 60.24,120.315C64.031,109.264 65.927,102.528 65.927,100.108C65.927,98.656 65.322,97.809 64.112,97.567C63.628,97.486 61.773,97.406 58.546,97.325C56.933,97.325 56.126,96.922 56.126,96.115C56.126,95.389 56.691,95.026 57.82,95.026L63.507,95.026L67.742,95.147L70.888,95.147C71.695,95.147 72.622,95.107 73.671,95.026L79.721,95.026C80.931,95.026 81.536,95.47 81.536,96.357Z" style="fill:rgb(255,0,0);fill-rule:nonzero;"/>
                <path d="M153.298,157.825C153.298,157.986 153.258,161.737 153.177,169.078C153.096,172.95 153.036,175.733 152.996,177.427C152.955,179.121 152.935,179.928 152.935,179.847C131.639,178.879 113.005,178.597 97.033,179L86.869,179.242C85.417,179.242 84.691,178.919 84.691,178.274C84.691,177.79 84.872,177.508 85.235,177.427C85.598,177.346 86.829,177.225 88.926,177.064C92.717,176.822 94.774,175.733 95.097,173.797C95.258,172.748 95.339,171.579 95.339,170.288L95.339,108.941C95.339,104.101 95.299,101.439 95.218,100.955C95.137,99.664 94.734,98.777 94.008,98.293C93.282,97.809 91.79,97.567 89.531,97.567C87.03,97.567 85.78,97.204 85.78,96.478C85.78,95.671 86.889,95.268 89.107,95.268C91.326,95.268 94.411,95.228 98.364,95.147C113.207,94.824 125.347,94.744 134.785,94.905L143.013,95.026C144.788,95.026 146.966,94.865 149.547,94.542L150.636,107.731C151.039,111.926 151.241,114.507 151.241,115.475C151.241,116.282 150.838,116.685 150.031,116.685C149.224,116.685 148.7,115.636 148.458,113.539C147.732,107.973 145.494,103.919 141.743,101.378C137.991,98.837 132.446,97.567 125.105,97.567C122.846,97.567 118.974,97.688 113.489,97.93L113.489,133.625C122.362,133.706 127.949,133.08 130.248,131.749C132.546,130.418 134.099,126.97 134.906,121.404C135.309,118.419 135.914,116.927 136.721,116.927C137.447,116.927 137.81,117.653 137.81,119.105C137.81,120.557 137.689,123.542 137.447,128.059C137.366,129.592 137.326,131.649 137.326,134.23C137.326,141.167 137.407,146.411 137.568,149.96C137.649,150.444 137.689,151.049 137.689,151.775C137.689,152.743 137.326,153.227 136.6,153.227C136.035,153.227 135.672,153.045 135.511,152.682C135.35,152.319 135.108,151.009 134.785,148.75C133.978,143.023 132.869,139.453 131.457,138.041C130.046,136.63 126.799,135.924 121.717,135.924L113.489,135.924L113.489,176.701L121.233,176.58C130.106,176.419 135.511,176.217 137.447,175.975C139.867,175.652 142.206,174.765 144.465,173.313C146.482,171.7 147.873,169.965 148.64,168.11C149.406,166.255 150.233,162.826 151.12,157.825C151.362,156.615 151.765,156.01 152.33,156.01C152.975,156.01 153.298,156.615 153.298,157.825Z" style="fill:rgb(255,0,0);fill-rule:nonzero;"/>
                <path d="M242.968,174.281C242.968,178.798 240.024,181.057 234.135,181.057C226.714,181.057 220.785,178.718 216.348,174.039C212.879,170.409 210.903,166.537 210.419,162.423L209.209,152.501C208.402,146.209 206.93,141.813 204.793,139.312C202.655,136.811 199.206,135.601 194.447,135.682L194.447,163.149C194.447,169.522 194.487,172.95 194.568,173.434C194.568,174.805 195.133,175.753 196.262,176.277C197.391,176.802 199.529,177.064 202.675,177.064C204.611,177.064 205.579,177.427 205.579,178.153C205.579,178.798 205.095,179.121 204.127,179.121L192.39,179C192.39,179 191.745,179 190.454,179C189.002,179.081 187.631,179.121 186.34,179.121L177.628,179.121C176.821,179.121 175.894,179.081 174.845,179C173.958,179 173.393,179 173.151,179L167.585,179.121C166.456,179.121 165.891,178.798 165.891,178.153C165.891,177.427 167.545,176.983 170.852,176.822C173.595,176.661 175.208,176.015 175.692,174.886C175.934,174.321 176.055,172.627 176.055,169.804L176.055,107.489C176.055,103.294 175.974,100.814 175.813,100.047C175.652,99.281 175.127,98.696 174.24,98.293C173.111,97.809 171.296,97.567 168.795,97.567C167.02,97.567 166.133,97.204 166.133,96.478C166.133,95.913 166.496,95.57 167.222,95.449C167.948,95.328 169.884,95.268 173.03,95.268C173.03,95.268 173.756,95.268 175.208,95.268C176.66,95.349 178.072,95.389 179.443,95.389L183.436,95.389C183.517,95.389 184.364,95.349 185.977,95.268L197.351,95.268C208.644,95.268 216.348,96.155 220.462,97.93C223.689,99.301 226.27,101.399 228.206,104.222C230.142,107.045 231.11,110.151 231.11,113.539C231.11,121.283 227.077,127.01 219.01,130.721C215.461,132.334 210.217,133.544 203.28,134.351L203.159,135.077C211.952,135.642 218.324,137.961 222.277,142.034C226.23,146.108 228.609,152.703 229.416,161.818C230.061,169.078 231.07,173.615 232.441,175.43C233.812,177.245 235.224,178.153 236.676,178.153C237.886,178.153 238.491,177.83 238.491,177.185C238.491,176.862 238.027,176.419 237.099,175.854C236.172,175.289 235.708,174.483 235.708,173.434C235.708,171.256 236.918,170.167 239.338,170.167C241.758,170.167 242.968,171.538 242.968,174.281ZM212.355,113.176C212.355,102.77 208.241,97.567 200.013,97.567C197.351,97.567 195.697,98.454 195.052,100.229C194.649,101.358 194.447,105.755 194.447,113.418L194.447,133.504C200.739,133.585 205.297,132.012 208.12,128.785C210.943,125.558 212.355,120.355 212.355,113.176Z" style="fill:rgb(255,0,0);fill-rule:nonzero;"/>
                <path d="M289.925,178.153C289.925,178.798 289.401,179.121 288.352,179.121C287.787,179.121 287.263,179.081 286.779,179C281.939,178.758 277.785,178.637 274.316,178.637C270.686,178.637 265.362,178.758 258.344,179C256.005,179.081 254.27,179.121 253.141,179.121C251.931,179.121 251.326,178.758 251.326,178.032C251.326,177.629 251.548,177.387 251.991,177.306C252.435,177.225 253.988,177.145 256.65,177.064C259.151,176.58 260.603,175.834 261.006,174.825C261.409,173.817 261.611,170.57 261.611,165.085L261.611,106.884C261.611,105.351 261.611,103.859 261.611,102.407C261.53,100.955 261.49,100.269 261.49,100.35C261.49,98.333 259.473,97.325 255.44,97.325C253.181,97.325 252.052,97.043 252.052,96.478C252.052,95.913 252.213,95.591 252.536,95.51C252.859,95.429 253.907,95.389 255.682,95.389C254.875,95.389 256.327,95.429 260.038,95.51C263.749,95.591 266.935,95.631 269.597,95.631L275.768,95.631C277.059,95.631 278.894,95.57 281.274,95.449C283.653,95.328 285.327,95.268 286.295,95.268L287.505,95.268C288.554,95.268 289.078,95.591 289.078,96.236C289.078,96.72 288.897,97.022 288.534,97.143C288.171,97.264 286.94,97.365 284.843,97.446C282.342,97.607 280.81,98.132 280.245,99.019L279.882,101.318L279.882,169.683C279.882,173.152 280.265,175.209 281.032,175.854C281.798,176.499 284.399,176.943 288.836,177.185C289.562,177.266 289.925,177.588 289.925,178.153Z" style="fill:rgb(255,0,0);fill-rule:nonzero;"/>
                <path d="M380.442,96.599C380.442,97.002 380.14,97.244 379.535,97.325C378.93,97.406 376.772,97.527 373.061,97.688C370.883,97.769 369.633,98.212 369.31,99.019C368.987,99.503 368.866,102.084 368.947,106.763L369.068,120.799C369.149,130.156 369.189,142.377 369.189,157.462L369.189,178.032C369.189,179.403 368.907,180.089 368.342,180.089C367.455,180.089 361.586,173.414 350.737,160.063C339.887,146.713 327.968,131.447 314.981,114.265L314.981,123.219C314.981,126.284 315.021,128.946 315.102,131.205L315.102,172.95C315.102,174.644 315.626,175.693 316.675,176.096C318.369,176.741 320.345,177.064 322.604,177.064C325.266,177.064 326.758,177.266 327.081,177.669C327.162,177.75 327.202,177.911 327.202,178.153C327.202,178.798 326.597,179.121 325.387,179.121C324.661,179.121 324.056,179.081 323.572,179C318.732,178.839 315.707,178.758 314.497,178.758C311.674,178.758 307.963,178.839 303.365,179C301.106,179.081 300.138,179.121 300.461,179.121C299.251,179.121 298.646,178.798 298.646,178.153C298.646,177.588 300.421,177.185 303.97,176.943C308.084,176.62 310.464,175.975 311.109,175.007C311.512,174.362 311.714,171.458 311.714,166.295L311.714,116.564C311.714,111.482 311.633,108.417 311.472,107.368C310.988,103.819 309.576,101.237 307.237,99.624C305.462,98.414 302.155,97.728 297.315,97.567C296.024,97.486 295.379,97.123 295.379,96.478C295.379,95.752 295.944,95.389 297.073,95.389C297.557,95.389 299.291,95.47 302.276,95.631C303.728,95.712 305.906,95.752 308.81,95.752C314.779,95.752 319.619,95.671 323.33,95.51L365.801,150.081L365.801,102.165C365.801,100.229 365.478,98.999 364.833,98.474C364.188,97.95 362.816,97.648 360.719,97.567L355.516,97.325C354.548,97.244 354.064,96.962 354.064,96.478C354.064,95.833 354.79,95.51 356.242,95.51L358.904,95.51C359.388,95.51 360.195,95.47 361.324,95.389C362.373,95.389 363.3,95.389 364.107,95.389C372.254,95.389 377.014,95.429 378.385,95.51C379.756,95.591 380.442,95.954 380.442,96.599Z" style="fill:rgb(255,0,0);fill-rule:nonzero;"/>
            </g>
            <g transform="matrix(2.40385,0,0,1,0,0)">
                <path d="M89.159,245.864C89.159,246.671 87.626,247.034 84.561,246.953C80.931,246.872 78.995,247.679 78.753,249.373C78.592,250.341 78.511,253.527 78.511,258.932C78.511,260.787 78.551,262.441 78.632,263.893C69.033,270.427 59.877,273.694 51.165,273.694C39.71,273.694 30.131,269.661 22.428,261.594C14.724,253.527 10.872,243.484 10.872,231.465C10.872,218.72 14.825,208.112 22.73,199.642C30.635,191.172 40.557,186.937 52.496,186.937C57.417,186.937 62.499,188.147 67.742,190.567C69.678,191.454 71.009,191.898 71.735,191.898C73.026,191.898 74.115,190.93 75.002,188.994C75.405,188.026 75.849,187.542 76.333,187.542C76.898,187.542 77.18,187.945 77.18,188.752C77.18,188.913 77.059,190.527 76.817,193.592C76.736,194.56 76.696,196.859 76.696,200.489C76.696,203.232 76.777,206.015 76.938,208.838C77.099,211.661 77.18,213.073 77.18,213.073C77.18,214.606 76.777,215.372 75.97,215.372C74.841,215.372 74.074,213.759 73.671,210.532C72.703,203.433 70.364,197.827 66.653,193.713C63.91,190.728 60.079,189.236 55.158,189.236C39.912,189.236 32.289,202.788 32.289,229.892C32.289,246.751 34.79,258.488 39.791,265.103C42.937,269.298 47.132,271.395 52.375,271.395C58.99,271.395 62.297,267.2 62.297,258.811C62.297,252.519 62.035,248.99 61.511,248.224C60.986,247.457 59.635,247.074 57.457,247.074L54.432,247.074C52.738,247.074 51.891,246.711 51.891,245.985C51.891,245.259 52.577,244.896 53.948,244.896C56.771,244.896 60.321,244.936 64.596,245.017L72.34,245.138C73.873,245.138 76.313,245.077 79.661,244.957C83.008,244.836 85.166,244.775 86.134,244.775L87.707,244.775C88.675,244.775 89.159,245.138 89.159,245.864Z" style="fill:rgb(255,0,0);fill-rule:nonzero;"/>
                <path d="M128.493,250.704L123.411,250.704C121.394,250.704 119.358,250.664 117.301,250.583C115.244,250.502 114.255,250.462 114.336,250.462C111.997,250.623 108.891,250.704 105.019,250.704L99.211,250.704L99.211,238.241L105.019,238.241L116.877,238.483C116.393,238.483 120.265,238.402 128.493,238.241L128.493,250.704Z" style="fill:rgb(255,0,0);fill-rule:nonzero;"/>
                <path d="M206.668,246.227C206.668,246.55 206.224,249.413 205.337,254.818C204.692,258.851 203.885,264.659 202.917,272.242C201.142,272.081 199.005,272 196.504,272L154.88,272C152.379,272 150.242,272.081 148.467,272.242C146.128,272.484 143.99,272.605 142.054,272.605C141.005,272.605 140.481,272.323 140.481,271.758C140.481,271.435 140.642,271.032 140.965,270.548C142.578,268.128 145.684,262.562 150.282,253.85L175.934,206.418C179.806,199.481 182.347,194.56 183.557,191.656C181.621,191.495 177.991,191.414 172.667,191.414C165.165,191.414 159.599,192.987 155.969,196.133C151.936,199.682 148.911,204.321 146.894,210.048C146.41,211.5 145.845,212.226 145.2,212.226C144.555,212.226 144.232,211.863 144.232,211.137C144.232,210.653 144.353,210.129 144.595,209.564C145.24,206.499 146.733,199.279 149.072,187.905C153.428,188.47 163.39,188.752 178.959,188.752C184.606,188.752 190.131,188.591 195.536,188.268C198.198,188.107 199.892,188.026 200.618,188.026C201.828,188.026 202.917,188.066 203.885,188.147C203.482,190.002 201.868,193.511 199.045,198.674C195.334,205.289 189.809,215.291 182.468,228.682C181.5,230.457 174.159,244.009 160.446,269.338C169.723,269.338 175.006,269.298 176.297,269.217C183.234,268.975 188.478,268.128 192.027,266.676C197.593,264.417 201.667,257.762 204.248,246.711C204.49,245.501 204.974,244.896 205.7,244.896C206.345,244.896 206.668,245.34 206.668,246.227Z" style="fill:rgb(255,0,0);fill-rule:nonzero;"/>
                <path d="M284.601,250.825C284.601,250.986 284.561,254.737 284.48,262.078C284.399,265.95 284.339,268.733 284.299,270.427C284.258,272.121 284.238,272.928 284.238,272.847C262.942,271.879 244.308,271.597 228.336,272L218.172,272.242C216.72,272.242 215.994,271.919 215.994,271.274C215.994,270.79 216.176,270.508 216.539,270.427C216.902,270.346 218.132,270.225 220.229,270.064C224.02,269.822 226.077,268.733 226.4,266.797C226.561,265.748 226.642,264.579 226.642,263.288L226.642,201.941C226.642,197.101 226.602,194.439 226.521,193.955C226.44,192.664 226.037,191.777 225.311,191.293C224.585,190.809 223.093,190.567 220.834,190.567C218.333,190.567 217.083,190.204 217.083,189.478C217.083,188.671 218.192,188.268 220.411,188.268C222.629,188.268 225.714,188.228 229.667,188.147C244.51,187.824 256.65,187.744 266.088,187.905L274.316,188.026C276.091,188.026 278.269,187.865 280.85,187.542L281.939,200.731C282.342,204.926 282.544,207.507 282.544,208.475C282.544,209.282 282.141,209.685 281.334,209.685C280.527,209.685 280.003,208.636 279.761,206.539C279.035,200.973 276.797,196.92 273.046,194.379C269.295,191.838 263.749,190.567 256.408,190.567C254.149,190.567 250.277,190.688 244.792,190.93L244.792,226.625C253.665,226.706 259.252,226.081 261.551,224.75C263.85,223.419 265.402,219.97 266.209,214.404C266.612,211.419 267.217,209.927 268.024,209.927C268.75,209.927 269.113,210.653 269.113,212.105C269.113,213.557 268.992,216.542 268.75,221.059C268.669,222.592 268.629,224.649 268.629,227.23C268.629,234.167 268.71,239.411 268.871,242.96C268.952,243.444 268.992,244.049 268.992,244.775C268.992,245.743 268.629,246.227 267.903,246.227C267.338,246.227 266.975,246.046 266.814,245.683C266.653,245.32 266.411,244.009 266.088,241.75C265.281,236.023 264.172,232.453 262.761,231.041C261.349,229.63 258.102,228.924 253.02,228.924L244.792,228.924L244.792,269.701L252.536,269.58C261.409,269.419 266.814,269.217 268.75,268.975C271.17,268.652 273.509,267.765 275.768,266.313C277.785,264.7 279.176,262.965 279.943,261.11C280.709,259.255 281.536,255.826 282.423,250.825C282.665,249.615 283.068,249.01 283.633,249.01C284.278,249.01 284.601,249.615 284.601,250.825Z" style="fill:rgb(255,0,0);fill-rule:nonzero;"/>
                <path d="M362.655,207.628C362.655,214.565 360.074,220.152 354.911,224.387C349.748,228.622 342.892,230.739 334.341,230.739C332.163,230.739 329.098,230.457 325.145,229.892L325.145,260.868C325.145,265.305 325.448,267.906 326.053,268.673C326.658,269.439 328.896,269.903 332.768,270.064C334.946,269.983 336.035,270.346 336.035,271.153C336.035,271.879 335.39,272.242 334.099,272.242L332.284,272.242C331.881,272.242 330.005,272.202 326.658,272.121C323.31,272.04 319.861,272 316.312,272L302.155,272.121C299.493,272.121 297.96,272.04 297.557,271.879C297.154,271.718 296.952,271.476 296.952,271.153C296.952,270.508 297.597,270.185 298.888,270.185C302.841,270.104 305.2,269.741 305.967,269.096C306.733,268.451 307.116,266.595 307.116,263.53L307.116,201.336C307.116,196.173 306.914,193.068 306.511,192.019C306.108,190.97 304.051,190.446 300.34,190.446C298.162,190.446 297.073,190.123 297.073,189.478C297.073,188.752 298.081,188.389 300.098,188.389L334.704,188.268C343.174,188.268 349.506,189.559 353.701,192.14C359.67,195.851 362.655,201.013 362.655,207.628ZM343.174,208.354C343.174,196.415 339.423,190.446 331.921,190.446C327.404,190.446 325.145,192.422 325.145,196.375L325.145,228.077C328.452,228.077 330.711,227.956 331.921,227.714C334.26,227.311 336.277,226.383 337.971,224.931C341.44,221.866 343.174,216.34 343.174,208.354Z" style="fill:rgb(255,0,0);fill-rule:nonzero;"/>
            </g>
            <g transform="matrix(2.40385,0,0,1,0,0)">
                <path d="M73.55,300.628C73.55,307.565 70.969,313.152 65.806,317.387C60.643,321.621 53.787,323.739 45.236,323.739C43.058,323.739 39.993,323.457 36.04,322.892L36.04,353.868C36.04,358.305 36.343,360.906 36.948,361.673C37.553,362.439 39.791,362.903 43.663,363.064C45.841,362.983 46.93,363.346 46.93,364.153C46.93,364.879 46.285,365.242 44.994,365.242L43.179,365.242C42.776,365.242 40.9,365.202 37.553,365.121C34.205,365.04 30.756,365 27.207,365L13.05,365.121C10.388,365.121 8.855,365.04 8.452,364.879C8.049,364.718 7.847,364.476 7.847,364.153C7.847,363.508 8.492,363.185 9.783,363.185C13.736,363.104 16.095,362.741 16.862,362.096C17.628,361.451 18.011,359.595 18.011,356.53L18.011,294.336C18.011,289.173 17.809,286.068 17.406,285.019C17.003,283.97 14.946,283.446 11.235,283.446C9.057,283.446 7.968,283.123 7.968,282.478C7.968,281.752 8.976,281.389 10.993,281.389L45.599,281.268C54.069,281.268 60.401,282.559 64.596,285.14C70.565,288.851 73.55,294.013 73.55,300.628ZM54.069,301.354C54.069,289.415 50.318,283.446 42.816,283.446C38.299,283.446 36.04,285.422 36.04,289.375L36.04,321.077C39.347,321.077 41.606,320.956 42.816,320.714C45.155,320.311 47.172,319.383 48.866,317.931C52.335,314.866 54.069,309.34 54.069,301.354Z" style="fill:rgb(255,0,0);fill-rule:nonzero;"/>
                <path d="M152.935,343.825C152.935,343.986 152.895,347.737 152.814,355.078C152.733,358.95 152.673,361.733 152.633,363.427C152.592,365.121 152.572,365.928 152.572,365.847C131.276,364.879 112.642,364.597 96.67,365L86.506,365.242C85.054,365.242 84.328,364.919 84.328,364.274C84.328,363.79 84.509,363.508 84.872,363.427C85.235,363.346 86.466,363.225 88.563,363.064C92.354,362.822 94.411,361.733 94.734,359.797C94.895,358.748 94.976,357.579 94.976,356.288L94.976,294.941C94.976,290.101 94.936,287.439 94.855,286.955C94.774,285.664 94.371,284.777 93.645,284.293C92.919,283.809 91.427,283.567 89.168,283.567C86.667,283.567 85.417,283.204 85.417,282.478C85.417,281.671 86.526,281.268 88.744,281.268C90.963,281.268 94.048,281.228 98.001,281.147C112.844,280.824 124.984,280.744 134.422,280.905L142.65,281.026C144.425,281.026 146.603,280.865 149.184,280.542L150.273,293.731C150.676,297.926 150.878,300.507 150.878,301.475C150.878,302.282 150.475,302.685 149.668,302.685C148.861,302.685 148.337,301.636 148.095,299.539C147.369,293.973 145.131,289.92 141.38,287.379C137.628,284.838 132.083,283.567 124.742,283.567C122.483,283.567 118.611,283.688 113.126,283.93L113.126,319.625C121.999,319.706 127.586,319.081 129.885,317.75C132.183,316.419 133.736,312.97 134.543,307.404C134.946,304.419 135.551,302.927 136.358,302.927C137.084,302.927 137.447,303.653 137.447,305.105C137.447,306.557 137.326,309.542 137.084,314.059C137.003,315.592 136.963,317.649 136.963,320.23C136.963,327.167 137.044,332.411 137.205,335.96C137.286,336.444 137.326,337.049 137.326,337.775C137.326,338.743 136.963,339.227 136.237,339.227C135.672,339.227 135.309,339.046 135.148,338.683C134.987,338.32 134.745,337.009 134.422,334.75C133.615,329.023 132.506,325.453 131.094,324.042C129.683,322.63 126.436,321.924 121.354,321.924L113.126,321.924L113.126,362.701L120.87,362.58C129.743,362.419 135.148,362.217 137.084,361.975C139.504,361.652 141.843,360.765 144.102,359.313C146.119,357.7 147.51,355.965 148.277,354.11C149.043,352.255 149.87,348.826 150.757,343.825C150.999,342.615 151.402,342.01 151.967,342.01C152.612,342.01 152.935,342.615 152.935,343.825Z" style="fill:rgb(255,0,0);fill-rule:nonzero;"/>
                <path d="M231.836,344.551C231.836,346.084 231.796,347.374 231.715,348.423C231.392,351.972 231.271,354.836 231.352,357.014L231.473,365.605C221.148,365.202 202.473,365 175.45,365L170.368,365C166.819,365 165.044,364.677 165.044,364.032C165.044,363.387 165.609,363.064 166.738,363.064C170.771,362.983 173.353,362.419 174.482,361.37C175.208,360.725 175.571,358.789 175.571,355.562L175.45,289.98C175.45,287.237 175.208,285.543 174.724,284.898C173.756,283.688 172.264,283.123 170.247,283.204L167.222,283.325C166.335,283.325 165.891,283.002 165.891,282.357C165.891,281.712 166.456,281.389 167.585,281.389C168.23,281.389 168.876,281.429 169.521,281.51L200.255,281.51C200.658,281.429 201.102,281.389 201.586,281.389C202.393,281.389 202.796,281.712 202.796,282.357C202.796,283.083 201.747,283.446 199.65,283.446C196.665,283.446 194.911,283.809 194.386,284.535C193.862,285.261 193.6,288.447 193.6,294.094L193.6,322.892C193.6,328.781 193.761,341.97 194.084,362.459C195.617,362.54 197.351,362.58 199.287,362.58C207.757,362.58 213.605,362.257 216.832,361.612C221.914,360.563 225.383,357.982 227.238,353.868C228.206,351.771 229.093,348.423 229.9,343.825C230.142,342.534 230.505,341.889 230.989,341.889C231.554,341.889 231.836,342.776 231.836,344.551Z" style="fill:rgb(255,0,0);fill-rule:nonzero;"/>
                <path d="M280.729,364.153C280.729,364.798 280.205,365.121 279.156,365.121C278.591,365.121 278.067,365.081 277.583,365C272.743,364.758 268.589,364.637 265.12,364.637C261.49,364.637 256.166,364.758 249.148,365C246.809,365.081 245.074,365.121 243.945,365.121C242.735,365.121 242.13,364.758 242.13,364.032C242.13,363.629 242.352,363.387 242.795,363.306C243.239,363.225 244.792,363.145 247.454,363.064C249.955,362.58 251.407,361.834 251.81,360.825C252.213,359.817 252.415,356.57 252.415,351.085L252.415,292.884C252.415,291.351 252.415,289.859 252.415,288.407C252.334,286.955 252.294,286.269 252.294,286.35C252.294,284.333 250.277,283.325 246.244,283.325C243.985,283.325 242.856,283.043 242.856,282.478C242.856,281.913 243.017,281.591 243.34,281.51C243.663,281.429 244.711,281.389 246.486,281.389C245.679,281.389 247.131,281.429 250.842,281.51C254.553,281.591 257.739,281.631 260.401,281.631L266.572,281.631C267.863,281.631 269.698,281.571 272.078,281.45C274.457,281.329 276.131,281.268 277.099,281.268L278.309,281.268C279.358,281.268 279.882,281.591 279.882,282.236C279.882,282.72 279.701,283.023 279.338,283.144C278.975,283.265 277.744,283.365 275.647,283.446C273.146,283.607 271.614,284.132 271.049,285.019L270.686,287.318L270.686,355.683C270.686,359.152 271.069,361.209 271.835,361.854C272.602,362.499 275.203,362.943 279.64,363.185C280.366,363.266 280.729,363.588 280.729,364.153Z" style="fill:rgb(255,0,0);fill-rule:nonzero;"/>
                <path d="M371.246,282.599C371.246,283.002 370.943,283.244 370.338,283.325C369.734,283.406 367.576,283.527 363.865,283.688C361.687,283.769 360.437,284.212 360.114,285.019C359.791,285.503 359.67,288.084 359.751,292.763L359.872,306.799C359.953,316.156 359.993,328.377 359.993,343.462L359.993,364.032C359.993,365.403 359.711,366.089 359.146,366.089C358.259,366.089 352.39,359.414 341.541,346.063C330.691,332.713 318.772,317.447 305.785,300.265L305.785,309.219C305.785,312.284 305.825,314.946 305.906,317.205L305.906,358.95C305.906,360.644 306.43,361.693 307.479,362.096C309.173,362.741 311.149,363.064 313.408,363.064C316.07,363.064 317.562,363.266 317.885,363.669C317.966,363.75 318.006,363.911 318.006,364.153C318.006,364.798 317.401,365.121 316.191,365.121C315.465,365.121 314.86,365.081 314.376,365C309.536,364.839 306.511,364.758 305.301,364.758C302.478,364.758 298.767,364.839 294.169,365C291.91,365.081 290.942,365.121 291.265,365.121C290.055,365.121 289.45,364.798 289.45,364.153C289.45,363.588 291.225,363.185 294.774,362.943C298.888,362.62 301.268,361.975 301.913,361.007C302.316,360.362 302.518,357.458 302.518,352.295L302.518,302.564C302.518,297.482 302.437,294.417 302.276,293.368C301.792,289.819 300.38,287.237 298.041,285.624C296.266,284.414 292.959,283.728 288.119,283.567C286.828,283.486 286.183,283.123 286.183,282.478C286.183,281.752 286.748,281.389 287.877,281.389C288.361,281.389 290.095,281.47 293.08,281.631C294.532,281.712 296.71,281.752 299.614,281.752C305.583,281.752 310.423,281.671 314.134,281.51L356.605,336.081L356.605,288.165C356.605,286.229 356.282,284.999 355.637,284.475C354.992,283.95 353.62,283.648 351.523,283.567L346.32,283.325C345.352,283.244 344.868,282.962 344.868,282.478C344.868,281.833 345.594,281.51 347.046,281.51L349.708,281.51C350.192,281.51 350.999,281.47 352.128,281.389C353.177,281.389 354.104,281.389 354.911,281.389C363.058,281.389 367.818,281.429 369.189,281.51C370.56,281.591 371.246,281.954 371.246,282.599Z" style="fill:rgb(255,0,0);fill-rule:nonzero;"/>
            </g>
        </g>
    </g>
</svg>
